PathFileType	4	(X/Y/Z)	32_1_50_p1_0-228_filt_butterworth.trc
DataRate	CameraRate	NumFrames	NumMarkers	Units	OrigDataRate	OrigDataStartFrame	OrigNumFrames
59.0	59.0	5	27	m	59.0	114	228
Frame#	Time	RHip			RKnee			RAnkle			RBigToe			RSmallToe			RHeel			LHip			LKnee			LAnkle			LBigToe			LSmallToe			LHeel			Neck			Head			Nose			RShoulder			RElbow			RWrist			RThumb			RIndex			RPinky			LShoulder			LElbow			LWrist			LThumb			LIndex			LPinky			
		X1	Y1	Z1	X2	Y2	Z2	X3	Y3	Z3	X4	Y4	Z4	X5	Y5	Z5	X6	Y6	Z6	X7	Y7	Z7	X8	Y8	Z8	X9	Y9	Z9	X10	Y10	Z10	X11	Y11	Z11	X12	Y12	Z12	X13	Y13	Z13	X14	Y14	Z14	X15	Y15	Z15	X16	Y16	Z16	X17	Y17	Z17	X18	Y18	Z18	X19	Y19	Z19	X20	Y20	Z20	X21	Y21	Z21	X22	Y22	Z22	X23	Y23	Z23	X24	Y24	Z24	X25	Y25	Z25	X26	Y26	Z26	X27	Y27	Z27	
114	1.9322033898305084	0.3433349764729697	0.48268736243640464	1.0738389607777667	0.34879804128060454	0.526124005865306	1.5277389392522311	0.3453845677986969	0.5632056264649896	1.9399258809777198	0.31965860494362786	0.3392205559367979	1.9231076036069963	0.38711551935349586	0.34368700363498855	1.9208388786484578	0.3197073260881105	0.6412671890512109	2.0111683115942944	0.1559006774503483	0.4616013245561229	1.089101771060051	0.1469069388957745	0.5341367483816558	1.5309458414028514	0.137426258147514	0.5376585239743883	1.9516852744786581	0.15370908922062285	0.31203974938094897	1.9055410767933894	0.09958844094668734	0.3650606706993187	1.9334425237676465	0.14930497761898615	0.5627892491918258	1.9916887053655097	0.22608366603128702	0.4665110187551009	0.5446646886000737	0.21629625449836098	0.3917089900213133	0.30999749124502163	0.22595411652246064	0.35047400152808017	0.4245051101631352	0.3727924133500282	0.46681970142367923	0.6124111212700378	0.41524862425279035	0.4495116110713844	0.8721861662442514	0.46150043183484446	0.3435738632919604	1.1034377957562165	0.47480604220113837	0.28123253186513913	1.2205179918805562	0.5153530324232265	0.27836681288904175	1.2151825628676745	0.5264161396964637	0.4037019152493838	1.2671710489326726	0.07320281348926569	0.4612491111804968	0.6313347620313837	0.07069197029663385	0.44242248646482907	0.8809439342923289	0.06413367400067042	0.3950647533257212	1.1190403743983894	0.1079079095967231	0.343770960934102	1.2070806410506498	0.07045348052026168	0.3618640726629042	1.2269549417122732	0.03254862096220922	0.3342104366177636	1.2051114309508464
115	1.9491525423728813	0.3426185903602771	0.4798896727523702	1.0744801060143558	0.349150365264819	0.5278959784993342	1.5282072746606037	0.34540346488438334	0.5631307210921758	1.9399240465953012	0.31932347500285074	0.3381082633661144	1.9222955325099136	0.3870676465681965	0.34397489870328274	1.9203549442471828	0.3197063797948052	0.6412538431830825	2.0111130567348816	0.15446063002702967	0.46458345210446866	1.0928910176774207	0.1468771141595137	0.5345264892121362	1.5311678012633974	0.13741436944397217	0.5376896619461347	1.9518843160552093	0.15377912445281128	0.3120269074401004	1.9055382889153243	0.09964545475022861	0.36492960018435705	1.9334076194764889	0.14933889356347188	0.5628185398705993	1.9917605661443387	0.22607952546605103	0.4664687896976227	0.5446716499852471	0.21643140763036056	0.3919075896187616	0.3102685888556659	0.22598751081219584	0.3504989870721359	0.42451643063093325	0.37282814562105454	0.4668148228299084	0.6124447084456268	0.415173141291345	0.4496732359674102	0.8713341817702493	0.46128385648479114	0.34340896394917264	1.1038258086398323	0.47733473455913844	0.27332114454193035	1.2164665486316906	0.5196405337735986	0.28010862423004157	1.2158548623823306	0.527208458621903	0.39918391466435754	1.2661951469799606	0.07316491643023511	0.46119467672538206	0.631317979978752	0.06962355530610799	0.44150635254060916	0.8808711889894629	0.06130741178935826	0.39866944326948023	1.1204146830357278	0.10650023931474427	0.34738090453781095	1.2085362980459198	0.06967326700458329	0.36115455451047423	1.2262501643864538	0.031730068828484524	0.34028180974670874	1.2056782525880239
116	1.9661016949152543	0.3416997987318357	0.47645211388776465	1.0748319624427451	0.3493122980440197	0.5286579950660759	1.5289511622790257	0.3454155261239111	0.5630725285426502	1.9399312588962818	0.3184487729468817	0.33519375967504095	1.9202854340360656	0.3869531117882978	0.34456519507349676	1.9193591750284753	0.31970136206199906	0.6412140885011042	2.011098895493415	0.15403085639510458	0.46874498882746174	1.0948575844782775	0.14678711625180754	0.5350464088545128	1.5300925905110279	0.13742502511404311	0.5377153253674463	1.95204645890903	0.153710721890419	0.31199780168099067	1.9055607732980449	0.09963329827415478	0.36493100700128717	1.9335070134863699	0.1493797635221686	0.5628678827978447	1.991889791159191	0.22616778156615475	0.4664857958033003	0.5446824340224243	0.2164185676732419	0.3918251301315754	0.3107796993350027	0.22601219913608914	0.35051803781084667	0.42452856288398855	0.3728778104672888	0.466830304478847	0.6124771292880631	0.41506196816759616	0.450056275459271	0.8711313532828305	0.4610171309719887	0.3434678153540534	1.1043130045926604	0.47990843806799016	0.26419376290683194	1.2121014832795205	0.5225119930896771	0.2809274278761047	1.2161805731537088	0.528414011218191	0.39578322166010965	1.2660656485636939	0.07318430608821251	0.4613746361573019	0.6313367006228545	0.06819282258547926	0.44006895224754217	0.8805010333876372	0.05874173693266044	0.40095399143408195	1.1203174556403752	0.10524224256860962	0.35022092772327845	1.209634652828337	0.06790497555995612	0.3615438767294492	1.2251536116460986	0.030490772701826294	0.3473934254606676	1.2063170520497244
117	1.9830508474576272	0.34095761695507676	0.474072147384097	1.0749059582914118	0.3495114743322819	0.5290487299131936	1.5298860785024475	0.34541311407381226	0.5630476050324443	1.9399350864551856	0.317286538446373	0.33132974126436143	1.9176673632751693	0.38682516737206074	0.34510086486014335	1.918419052979878	0.31969559502206224	0.6411533134304224	2.011118629063807	0.15374475351411632	0.4722612908407469	1.095271322207434	0.14665582740446226	0.535565126068104	1.5285739008115131	0.13755180583609522	0.5377021337106882	1.9515396858544896	0.15366647913735051	0.31210079875263314	1.905683975174803	0.09962693714099218	0.3649394558845981	1.933521372039213	0.1494025830618463	0.5629525977604981	1.991925553383982	0.22620917254121503	0.4665265821729383	0.544691614939094	0.21638266279997795	0.3917448741491019	0.31164032594224805	0.22601785368125013	0.35052276556651496	0.4245394355403294	0.3728040763550089	0.4668232995669517	0.612514540936791	0.4150318466325988	0.45028810861862734	0.8712445682581383	0.46125435393629816	0.343636723858661	1.105339129906445	0.4820147625091685	0.2564961219669235	1.2089531748385816	0.5234393003570079	0.2808311583612001	1.2161150913761933	0.5303093101798774	0.3945345804517382	1.2663405989246483	0.07320075552408621	0.46148433697339053	0.6313419608233477	0.0669042954335282	0.43897051281262256	0.8799949719770577	0.05716317665626422	0.4012497729884198	1.1193481487503898	0.10365819342724772	0.35264139267834027	1.210576979206086	0.06494599617611639	0.36372846172533607	1.2242232803511526	0.029243790224798616	0.3507659873226635	1.2069601153813594
118	2.0	0.34046210525890724	0.47334156115762843	1.0742066284526217	0.34963121224344756	0.5291567764032507	1.5302365843254895	0.3453983581290905	0.5630436721705565	1.9399228038483356	0.31639868814241134	0.3284088909807599	1.9156553902920355	0.38678391871084883	0.34508459398458824	1.9183753636342684	0.3196922230217144	0.6410671601438268	2.011111364381285	0.15302181121928074	0.4740764276254587	1.0949528342110648	0.14654679686058886	0.5358123069259508	1.5274613968991448	0.1378723860239201	0.5376280290663068	1.94959226638474	0.15367691651324109	0.3123412471755288	1.9058536819108072	0.09973696773984495	0.36487374244812065	1.9330903117618805	0.1493693989958484	0.5631050125732106	1.9915420588251396	0.226200061916598	0.46658987492812687	0.5446875063507192	0.2164045918563489	0.3916663907221202	0.3126803897726127	0.22600848721852507	0.35051902451785716	0.4245505083374725	0.3723338829743931	0.46668590002438565	0.6125629725732716	0.4151225553082826	0.45044429827029187	0.8714199786379041	0.46250201821696746	0.34455894517562435	1.107638797728302	0.48358557552337733	0.2508545504650946	1.206942205700424	0.5232845743517616	0.28041429200079976	1.2158500092208484	0.5323799833711138	0.39472360817297014	1.2666547092413034	0.073211700189146	0.46153474393079	0.6313373566131322	0.06572124745128001	0.43956032129676126	0.8799271157056384	0.056164609841628715	0.4003502521020268	1.1184340818359813	0.10058665034275224	0.35697573158970547	1.2124005629993133	0.06112314151692227	0.36641911922711823	1.2240401150835696	0.02828986225592928	0.34897187312107886	1.2075617433014438
